<svg width="50" height="50" viewBox="0 0 50 50" fill="none" xmlns="http://www.w3.org/2000/svg">
<path d="M39.5775 0L10.4175 0C4.66178 0 0 4.66178 0 10.4175L0 39.5825C0 45.3332 4.66178 50 10.4175 50L39.5825 50C45.3382 50 50 45.3382 50 39.5825L50 10.4175C50 4.6668 45.3382 0 39.5825 0L39.5775 0ZM30.274 40.8069C29.431 40.9675 29.16 40.4506 29.16 40.009V35.4376C29.16 33.882 28.613 32.8683 28.0159 32.3515C31.7292 31.94 35.6283 30.5299 35.6283 24.1269C35.6283 22.3053 34.9759 20.82 33.9121 19.6558C34.0827 19.2342 34.6548 17.5381 33.7465 15.2449C33.7465 15.2449 32.3464 14.7983 29.17 16.951C27.8352 16.5747 26.4101 16.394 24.995 16.389C23.5799 16.394 22.1548 16.5797 20.82 16.951C17.6385 14.7933 16.2385 15.2449 16.2385 15.2449C15.3352 17.5381 15.9073 19.2342 16.0779 19.6558C15.009 20.82 14.3617 22.3053 14.3617 24.1269C14.3617 30.5098 18.2507 31.94 21.954 32.3615C21.4773 32.778 21.0458 33.5106 20.8952 34.5895C19.9418 35.0161 17.5331 35.7487 16.0478 33.2045C16.0478 33.2045 15.1646 31.6038 13.4936 31.4884C13.4936 31.4884 11.8677 31.4683 13.3782 32.502C13.3782 32.502 14.4721 33.0139 15.2298 34.9408C15.2298 34.9408 16.1933 37.9165 20.83 36.9079V40.009C20.83 40.4506 20.559 40.9675 19.731 40.8119C13.1072 38.609 8.32999 32.3615 8.32999 25C8.32999 15.7969 15.7919 8.33501 24.995 8.33501C34.1981 8.33501 41.66 15.7969 41.66 25C41.66 32.3615 36.8928 38.604 30.274 40.8119V40.8069Z" fill="#CC4F02"/>
</svg>
