<svg width="50" height="50" viewBox="0 0 50 50" fill="none" xmlns="http://www.w3.org/2000/svg">
<path d="M39.5899 0L10.4152 0C4.66714 0 0 4.66714 0 10.4152L0 39.5848C0 45.3379 4.66714 50 10.4152 50L39.5848 50C45.3379 50 50 45.3329 50 39.5848L50 10.4152C50 4.66209 45.3379 0 39.5848 0L39.5899 0ZM16.6684 39.5899H10.4152L10.4152 16.6684L16.6684 16.6684L16.6684 39.5899ZM13.5418 14.0267C11.5315 14.0267 9.89494 12.38 9.89494 10.3495C9.89494 8.31902 11.5264 6.67239 13.5418 6.67239C15.5571 6.67239 17.1886 8.31902 17.1886 10.3495C17.1886 12.38 15.5571 14.0267 13.5418 14.0267ZM41.6709 39.5899H35.4177V27.9119C35.4177 20.8961 27.0835 21.4264 27.0835 27.9119L27.0835 39.5899L20.8304 39.5899L20.8304 16.6684H27.0835V20.3455C29.9929 14.9561 41.6709 14.557 41.6709 25.5026V39.5848V39.5899Z" fill="#CC4F02"/>
</svg>
