<svg width="50" height="50" viewBox="0 0 50 50" fill="none" xmlns="http://www.w3.org/2000/svg">
<path d="M39 0C45.0751 7.73109e-07 50 4.92487 50 11V39C50 45.0751 45.0751 50 39 50H11C4.92487 50 0 45.0751 0 39V11C7.73133e-07 4.92487 4.92487 0 11 0H39ZM25 6.83301C14.9671 6.83318 6.83318 14.9671 6.83301 25C6.83318 35.0329 14.9671 43.1658 25 43.166C35.0329 43.1658 43.1658 35.0329 43.166 25C43.1658 15.1237 35.2852 7.0875 25.4688 6.83887L25 6.83301ZM40.0928 26.5C39.4547 32.9994 34.7142 38.2938 28.4951 39.7607C31.2312 35.8689 32.8405 31.279 33.1201 26.5H40.0928ZM16.8789 26.5C17.1585 31.2784 18.7675 35.8682 21.5029 39.7598C15.2849 38.2921 10.5453 32.9986 9.90723 26.5H16.8789ZM30.1162 26.5C29.8025 31.2317 28.0116 35.7459 24.999 39.4053C21.9869 35.7461 20.1974 31.2314 19.8838 26.5H30.1162ZM21.5039 10.2383C18.7677 14.1301 17.1586 18.721 16.8789 23.5H9.90723C10.5455 17.001 15.2853 11.7056 21.5039 10.2383ZM24.999 10.5928C28.012 14.2522 29.8025 18.7679 30.1162 23.5H19.8838C20.1974 18.7681 21.9864 14.2521 24.999 10.5928ZM28.4941 10.2383C34.7136 11.7049 39.4545 17.0003 40.0928 23.5H33.1201C32.8404 18.7207 31.2308 14.1302 28.4941 10.2383Z" fill="#CC4F02"/>
</svg>
