<svg width="50" height="50" viewBox="0 0 50 50" fill="none" xmlns="http://www.w3.org/2000/svg">
<path d="M40 0C45.5228 0 50 4.47715 50 10V40C50 45.5228 45.5228 50 40 50H10C4.47715 50 8.05346e-08 45.5228 0 40V10C0 4.47715 4.47715 8.05322e-08 10 0H40ZM26.5 8.64453C24.3067 8.64453 22.3231 8.97167 20.5498 9.625C18.7999 10.2783 17.2715 11.1888 15.9648 12.3555C14.6583 13.5221 13.5614 14.8633 12.6748 16.3799C11.8115 17.8965 11.1582 19.5303 10.7148 21.2803C10.2949 23.0068 10.085 24.7689 10.085 26.5654C10.085 29.1552 10.4703 31.4298 11.2402 33.3896C12.0102 35.3262 13.0716 36.9364 14.4248 38.2197C15.7781 39.5263 17.3647 40.5068 19.1846 41.1602C21.0046 41.8135 22.9654 42.1396 25.0654 42.1396C26.6286 42.1396 28.2272 41.9652 29.8604 41.6152C31.5169 41.2652 33.1853 40.74 34.8652 40.04L34.0254 37.6953C32.6022 38.1386 31.2136 38.4766 29.8604 38.71C28.507 38.9433 27.2113 39.0596 25.9746 39.0596C24.2015 39.0595 22.5684 38.8151 21.0752 38.3252C19.6052 37.8352 18.3213 37.0765 17.2246 36.0498C16.1514 35.0232 15.3117 33.7282 14.7051 32.165C14.1217 30.6017 13.8301 28.7463 13.8301 26.5996C13.8301 24.7564 14.0981 22.9598 14.6348 21.21C15.1947 19.4601 16.0117 17.8853 17.085 16.4854C18.1583 15.062 19.4885 13.9417 21.0752 13.125C22.6851 12.2851 24.5399 11.8653 26.6396 11.8652C28.5763 11.8652 30.21 12.1687 31.54 12.7754C32.8698 13.382 33.9313 14.1982 34.7246 15.2246C35.5412 16.2512 36.1246 17.4181 36.4746 18.7246C36.8479 20.0079 37.0352 21.35 37.0352 22.75C37.0352 24.01 36.9071 25.2121 36.6504 26.3555C36.3937 27.4987 36.0429 28.5138 35.5996 29.4004C35.1563 30.2868 34.6428 30.9868 34.0596 31.5C33.4997 32.0131 32.8934 32.2695 32.2402 32.2695C31.9369 32.2695 31.7034 32.2114 31.54 32.0947C31.4001 31.9547 31.2946 31.7329 31.2246 31.4297C31.178 31.1264 31.1553 30.7182 31.1553 30.2051C31.1553 29.8784 31.1671 29.505 31.1904 29.085C31.2371 28.6417 31.3071 28.0818 31.4004 27.4053C31.4937 26.7286 31.6218 25.8763 31.7852 24.8496C31.9485 23.8231 32.1466 22.5515 32.3799 21.0352C32.6132 19.5186 32.8813 17.7102 33.1846 15.6104L28.4951 15.9248L28.3203 17.8154C28.087 16.9988 27.678 16.3455 27.0947 15.8555C26.5114 15.3422 25.7418 15.085 24.7852 15.085C24.0852 15.085 23.3846 15.2485 22.6846 15.5752C22.0081 15.9019 21.3545 16.4154 20.7246 17.1152C20.0948 17.8151 19.5348 18.7132 19.0449 19.8096C18.5783 20.9062 18.2048 22.2138 17.9248 23.7305C17.6449 25.247 17.5049 26.9973 17.5049 28.9805C17.5049 30.4969 17.7266 31.722 18.1699 32.6553C18.6132 33.5884 19.1849 34.2764 19.8848 34.7197C20.5846 35.1396 21.2964 35.3495 22.0195 35.3496C22.8828 35.3496 23.618 35.2096 24.2246 34.9297C24.8313 34.6264 25.3683 34.2184 25.835 33.7051C26.325 33.1917 26.7684 32.5848 27.165 31.8848C27.165 32.3747 27.2587 32.8882 27.4453 33.4248C27.632 33.9614 28.0164 34.4167 28.5996 34.79C29.1829 35.1634 30.0816 35.3496 31.2949 35.3496C32.9516 35.3496 34.3754 34.988 35.5654 34.2646C36.7552 33.518 37.7232 32.5265 38.4697 31.29C39.2397 30.0534 39.8004 28.665 40.1504 27.125C40.5237 25.585 40.71 24.0212 40.71 22.4346C40.7099 20.5682 40.43 18.8068 39.8701 17.1504C39.3102 15.4705 38.4468 14.0002 37.2803 12.7402C36.1136 11.4569 34.6316 10.4538 32.835 9.73047C31.0616 9.00714 28.95 8.64453 26.5 8.64453ZM25.4502 18.7598C26.0567 18.7598 26.5003 18.9698 26.7803 19.3896C27.0602 19.7863 27.2228 20.3698 27.2695 21.1396C27.3162 21.9096 27.2698 22.8548 27.1299 23.9746L26.8154 26.5303C26.6754 27.7433 26.4418 28.7231 26.1152 29.4697C25.8119 30.2164 25.4503 30.7652 25.0303 31.1152C24.6103 31.4652 24.155 31.6396 23.665 31.6396C23.2917 31.6396 23 31.5233 22.79 31.29C22.58 31.0334 22.4283 30.6599 22.335 30.1699C22.265 29.6799 22.2305 29.0966 22.2305 28.4199C22.2305 26.8566 22.2768 25.5263 22.3701 24.4297C22.4868 23.3098 22.6385 22.3883 22.8252 21.665C23.0352 20.9184 23.2687 20.335 23.5254 19.915C23.8054 19.4951 24.0971 19.2034 24.4004 19.04C24.727 18.8535 25.077 18.7598 25.4502 18.7598Z" fill="#CC4F02"/>
</svg>
